<svg width="980" height="347" viewBox="0 0 980 347" fill="#481173" xmlns="http://www.w3.org/2000/svg">
<path d="M183.75 16.65H169.75H108.15H95.9H34.3V78.25V227.7H95.9V78.25H108.15V227.7H169.75V78.25H183.75V227.7H245.35V78.25V16.65H183.75ZM463.682 16.3V139.85L375.832 51.65V16.3H314.232V227.7H375.832V138.8L463.682 227L464.382 227.7H465.782H525.282V16.3H463.682ZM660.663 227.7V16.65H598.713V227.7H660.663ZM883.75 16.65H795.9H734.3V78.25V166.1V227.7H795.9H883.75V286.85H945.35V227.7V166.1V78.25V16.65H883.75ZM883.75 166.1H795.9V78.25H883.75V166.1Z" fill="#481173"/>
</svg>
