<svg width="24" height="24" xmlns="http://www.w3.org/2000/svg"><path d="M12 19c-.26 0-.52-.11-.71-.29-.09-.1-.16-.2-.21-.33A.995.995 0 0111 18c0-.26.11-.52.29-.71.1-.09.2-.16.33-.21a1 1 0 01.76 0c.13.05.23.12.33.21.18.19.29.45.29.71 0 .26-.11.52-.29.71-.19.18-.45.29-.71.29zm5-1a1 1 0 012 0v2a3 3 0 01-3 3H8a3 3 0 01-3-3V4a3 3 0 013-3h8a3 3 0 013 3v10a1 1 0 01-2 0V4a1 1 0 00-1-1H8a1 1 0 00-1 1v16a1 1 0 001 1h8a1 1 0 001-1v-2zM14 5a1 1 0 010 2h-4a1 1 0 110-2h4z" fill="#005BFF" stroke="inherit"/></svg>