<svg xmlns="http://www.w3.org/2000/svg" width="100mm" height="30mm" viewBox="0 0 10000 3000" shape-rendering="geometricPrecision" text-rendering="geometricPrecision" image-rendering="optimizeQuality" fill-rule="evenodd" clip-rule="evenodd"><path fill="#fefefe" d="M-4033.93-4315.99h17355.12v7045.45H-4033.93z"/><g fill-rule="nonzero"><path d="M142.6 2840.32v-16.52c16.3 0 29.84-7.99 40.39-23.97 10.54-15.99 19.82-41.55 27.7-76.72 7.89-35.16 16.52-86.09 25.89-152.68l23.76-10.12c15.77 36.76 33.04 74.05 51.69 111.87 23.22 48.27 38.78 84.5 46.66 108.68h3.84c7.14-16.61 13-28.87 17.58-36.87 4.68-7.88 9.91-16.72 15.66-26.63 5.86-9.91 14.28-26 25.15-48.37 10.97-22.27 26-55.1 45.28-98.56l28.77-10.12c5.86 53.8 10.97 96.21 15.24 127.33 4.26 31.21 9.16 56.68 14.48 76.61 5.44 19.92 12.48 34.84 21 44.75 8.52 9.9 19.28 14.8 32.28 14.8v16.52h-22.26c-2.13 0-5.33-.43-9.71-1.28-4.36-.74-7.77-1.17-10.22-1.17-9.16 0-20.89.43-34.95 1.17-14.06.85-25.14 1.28-33.35 1.28h-13.43v-16.52c10.77 0 18.76-2.45 23.66-7.24 5-4.9 7.56-13.96 7.56-27.39 0-7.56-.43-14.8-1.27-22.05a355.74 355.74 0 00-3.63-23.55c-1.49-8.52-2.66-15.34-3.41-20.35-5.75-33.99-9.27-68.08-10.76-102.18h-4.48c-22.36 56.79-56.78 129.89-103.03 219.28h-10.76c-4.58-9.58-11.08-22.58-19.29-39.21-8.31-16.52-14.91-29.84-19.81-40.06-22.17-44.65-36.13-73.41-42.09-86.21-5.86-12.78-11.83-28.34-18.01-46.77h-4.48c-4.68 31.86-9.15 59.98-13.42 84.39-2.77 15.12-5.33 29.73-7.78 43.79-2.45 14.17-3.62 25.25-3.62 33.56 0 23.44 9.8 35.28 29.3 35.28 2.14 0 5.75-.43 10.97-1.29v16.52h-17.36c-2.99 0-5.76-.11-8.21-.43-2.55-.21-6.07-.64-10.54-1.16-4.58-.65-7.03-.86-7.46-.86h-36.34c-10.44 1.59-17.9 2.45-22.48 2.45H142.6zm746.51-57.53v21.83c-20.56 16.73-35.79 28.03-45.39 33.89-9.69 5.85-17.79 8.84-24.4 8.84-18 0-29.93-14.91-35.69-44.75-13.32 13.96-28.35 24.83-45.07 32.82-16.73 7.99-33.25 11.93-49.55 11.93-24.72 0-42.61-5.22-53.7-15.77-11.19-10.55-16.73-21.2-16.73-32.18 0-24.82 13.43-45.92 40.28-63.29 26.96-17.26 70-28.45 129.24-33.35v-19.18c0-28.87-2.23-50.93-6.81-66.17-4.48-15.23-11.08-25.35-19.83-30.37-8.74-5-20.45-7.56-35.37-7.56-11.4 0-21.3 3.3-29.94 10.02-8.63 6.6-12.89 14.81-12.89 24.5 0 5.65 1.92 11.62 5.75 17.91l-53.07 32.06c-3.83-8.3-5.74-16.29-5.74-23.76 0-15.55 7.35-29.5 22.05-41.66 14.71-12.14 32.5-21.63 53.38-28.23 20.88-6.72 39.1-10.01 54.87-10.01 21 0 38.79 4.68 53.17 14.16 14.5 9.39 21.74 24.73 21.74 45.93 0 8.74-.95 28.34-2.77 58.82-1.92 30.36-3.51 64.45-5.01 102.28 0 24.73 4.49 37.19 13.43 37.19 10.65 0 26.74-12.04 48.05-35.9zm-103.03-63.29c-37.4 2.66-66.49 7.56-87.26 14.8-20.67 7.35-31.02 22.06-31.02 44.11 0 13.21 3.52 24.83 10.66 34.74 7.04 10.01 17.37 15.03 31.01 15.03 19.28 0 36.87-7.99 52.74-24.08 15.88-15.99 23.87-44.23 23.87-84.6zm354.4-60.64h-21.1c.43-3.51.64-8.21.64-14.06 0-38.04-23.86-57.01-71.6-57.01-4.26 0-11.51.43-21.74 1.29-2.88 32.7-4.36 78.2-4.36 136.27v18.54c0 26.01 1.91 45.82 5.65 59.46 3.83 13.64 12.35 20.45 25.56 20.45h23.77v16.52h-33.89c-3.93 0-12.67-.86-26.21-2.45h-31.43c-13.74 1.59-22.27 2.45-25.58 2.45h-27.48v-16.52h15.34c23.87 0 35.9-36.22 35.9-108.79 0-8.83-.2-20.45-.63-34.95-.42-14.48-.64-23.65-.64-27.59 0-18.43-.53-32.18-1.59-41.24-1.18-9.05-4.16-16.2-9.06-21.42-5.01-5.22-13-7.77-23.98-7.77-2.56 0-7.56.42-15.34 1.28v-16.52h28.13c7.56 0 17.79.32 30.69 1.18 10.23.84 28.98 1.27 56.25 1.27 35.38 0 66.27-.84 92.7-2.45v92.06zm320.62 123.93v21.83c-20.56 16.73-35.79 28.03-45.39 33.89-9.69 5.85-17.79 8.84-24.4 8.84-18.01 0-29.94-14.91-35.69-44.75-13.32 13.96-28.35 24.83-45.07 32.82-16.74 7.99-33.25 11.93-49.56 11.93-24.71 0-42.61-5.22-53.69-15.77-11.19-10.55-16.73-21.2-16.73-32.18 0-24.82 13.42-45.92 40.28-63.29 26.96-17.26 69.99-28.45 129.24-33.35v-19.18c0-28.87-2.24-50.93-6.82-66.17-4.48-15.23-11.08-25.35-19.82-30.37-8.74-5-20.45-7.56-35.38-7.56-11.39 0-21.3 3.3-29.93 10.02-8.63 6.6-12.89 14.81-12.89 24.5 0 5.65 1.91 11.62 5.74 17.91l-53.06 32.06c-3.83-8.3-5.74-16.29-5.74-23.76 0-15.55 7.35-29.5 22.04-41.66 14.71-12.14 32.5-21.63 53.39-28.23 20.88-6.72 39.1-10.01 54.87-10.01 21 0 38.79 4.68 53.17 14.16 14.49 9.39 21.74 24.73 21.74 45.93 0 8.74-.96 28.34-2.78 58.82-1.91 30.36-3.5 64.45-5 102.28 0 24.73 4.48 37.19 13.42 37.19 10.66 0 26.75-12.04 48.06-35.9zm-103.03-63.29c-37.4 2.66-66.49 7.56-87.27 14.8-20.67 7.35-31.01 22.06-31.01 44.11 0 13.21 3.52 24.83 10.65 34.74 7.04 10.01 17.38 15.03 31.02 15.03 19.28 0 36.86-7.99 52.74-24.08 15.88-15.99 23.87-44.23 23.87-84.6zm215.57-18.02v-22.15c7.56 1.59 15.23 2.44 23.11 2.44 12.89 0 24.3-2.55 34.21-7.67 9.9-5.11 17.58-12.15 22.91-21.2 5.42-8.95 8.2-18.97 8.2-30.05 0-12.36-4.48-23.33-13.43-32.93-8.84-9.58-21.1-14.38-36.55-14.38-18.75 0-34.09 6.17-45.91 18.54-11.83 12.36-20.68 25.78-26.43 40.39-8.2-11.3-17.58-22.17-28.02-32.72 18.11-15.23 36.54-25.99 55.51-32.18 18.86-6.18 36.54-9.26 53.17-9.26 30.69 0 52.1 5.85 64.25 17.47 12.25 11.62 18.33 23.76 18.33 36.22 0 37.51-20.99 61.38-62.87 71.6v5.12c27.49 1.5 47.74 8.74 60.63 21.63 12.89 13 19.4 28.14 19.4 45.5 0 15.23-4.81 29.73-14.39 43.48-9.59 13.84-23.23 24.92-40.92 33.34-17.79 8.42-38.14 12.68-61.06 12.68-41.12 0-75.64-14.91-103.67-44.75 15.67-9.16 29.94-20.88 42.94-35.17 10.02 43.16 31.32 64.68 63.82 64.68 15.77 0 30.38-5 43.8-15.02 13.54-10.01 20.24-24.18 20.24-42.62 0-22.48-5.32-41.24-15.87-56.26-10.55-15.02-26.32-22.47-47.31-22.47-9.58 0-20.99 1.91-34.09 5.74zm287.47 89.73l5.76 1.8c15.02-20.67 35.69-47.3 61.91-79.91 8.62-10.34 31.22-38.78 67.76-85.03 18.01-22.49 34.85-45.07 50.51-67.76l17.16 3.94c-1.18 15.87-2.25 44.64-3.09 86.09v111.35c0 11.61.42 20.88 1.27 27.8.85 6.94 2.88 13.11 6.08 18.44 3.19 5.22 8.2 9.27 14.8 11.94 6.72 2.66 15.66 3.93 26.96 3.93v16.52h-28.02c-5 0-13.1-.86-24.4-2.45h-35.06c-11.08 1.59-18.97 2.45-23.65 2.45h-27.6v-16.52c20.89 0 34.41-5.43 40.38-16.3 5.97-10.87 8.96-28.34 8.96-52.21v-25.67c0-40.6 2.13-74.59 6.38-102.19l-7.02-1.92a1503.025 1503.025 0 01-39.64 53.92 1679.615 1679.615 0 01-41.12 51.25c-14.5 17.58-28.89 34.62-43.16 51.25a49654.63 49654.63 0 01-56.26 65.42l-19.18-3.08c2.02-28.89 3.09-74.7 3.09-137.57 0-36.54-.54-62.54-1.6-77.99-1.17-15.45-4.16-26.85-9.16-34.31-5.01-7.45-13.32-11.19-24.93-11.19h-12.26v-16.52h30.16c2.98 0 7.45.33 13.42 1.08 5.96.73 10.23 1.27 12.79 1.48h25.46c1.82-.21 5.97-.75 12.26-1.48 6.28-.75 10.98-1.08 13.95-1.08h30.69v16.52h-12.78c-9.81 0-17.48 1.92-22.92 5.87-5.43 3.93-9.37 10.97-11.82 21.31-2.45 10.33-3.63 25.56-3.63 45.7v60.1c0 30.79-.85 55.73-2.45 75.02zm302.62-224.52h29.94c2.45 0 10.97.86 25.58 2.56h26.85c14.59-1.7 23.12-2.56 25.57-2.56h27.49v16.52h-9.49c-9.48 0-16.83 1.49-21.95 4.37-5.12 2.98-8.84 8.74-11.18 17.48-2.24 8.73-3.41 21.73-3.41 39.21v38.35c24.18 4.27 48.48 6.4 72.88 6.4 24.39 0 48.69-2.13 72.88-6.4v-38.35c0-17.48-1.18-30.59-3.42-39.32-2.34-8.74-5.95-14.6-11.08-17.48-5.11-2.88-12.35-4.26-21.83-4.26h-9.71v-16.52h27.5c2.45 0 10.97.86 25.57 2.56h26.85c14.6-1.7 23.13-2.56 25.58-2.56h29.93v16.52h-12.03c-10.45 0-18.22 1.6-23.34 4.8-5.11 3.09-8.84 9.9-11.08 20.24-2.24 10.34-3.31 26.74-3.31 49.23v82.47c0 18.11.54 32.72 1.6 43.79 1.17 11.08 4.16 20.57 9.06 28.35 4.9 7.78 12.36 11.71 22.59 11.71h16.51v16.52h-28.02c-4.68 0-12.57-.86-23.65-2.45h-35.81c-11.08 1.59-19.17 2.45-24.19 2.45h-23.76v-16.52h11.51c14.39 0 23.77-5.97 28.02-18 4.38-12.04 6.51-28.23 6.51-48.49v-53.06c-34.53 1.71-58.82 2.45-72.88 2.45-14.07 0-38.36-.74-72.88-2.45v53.06c0 20.26 2.23 36.45 6.6 48.49 4.48 12.03 13.74 18 27.92 18h11.51v16.52h-23.76c-5.02 0-13.11-.86-24.19-2.45h-35.81c-11.08 1.59-18.96 2.45-23.65 2.45h-28.02v-16.52h16.51c10.24 0 17.69-3.93 22.59-11.71 4.9-7.78 7.89-17.27 9.07-28.35 1.05-11.07 1.59-25.68 1.59-43.79v-82.47c0-22.49-1.07-38.89-3.31-49.23-2.23-10.34-5.97-17.15-11.08-20.24-5.11-3.2-12.78-4.8-23.23-4.8h-12.14v-16.52zm594.56 365.06v-118.39c4.47 1.29 8.74 1.92 12.78 1.92 14.6 0 27.5-6.71 38.78-20.03 11.2-13.43 21.21-31.32 29.84-53.92 8.74-22.58 17.69-50.83 26.96-84.81 9.27-33.88 17.9-65.74 25.89-95.58l20.45-3.94c4.92 15.88 14.29 43.47 28.25 82.58 6.6 17.69 11.93 32.6 15.98 44.75 5.22 15.13 10.98 33.45 17.26 55.09 6.18 21.63 11.08 37.18 14.81 46.66 3.62 9.49 8.63 17.05 14.81 22.7 6.18 5.65 14.39 8.53 24.72 8.53 7.14 0 15.56-1.29 25.46-3.95-10.12 25.47-18.54 50.61-25.46 75.44-8.2 26.32-12.67 40.59-13.42 42.95h-21.21c6.82-23.56 10.34-41.25 10.34-53.07 0-9.91-2.24-17.58-6.61-23.02-4.37-5.33-12.79-9.26-25.14-11.71-12.36-2.45-31.22-3.63-56.48-3.63-5.54 0-9.58.21-12.25.64h-11.51c-16.09 0-28.45-.21-36.97-.64-3.09.43-7.67.64-14.07.64-12.25 0-22.69 2.02-31.11 5.97-8.42 4.05-15.56 12.68-21.52 25.78-5.96 13.22-9.7 32.81-11.4 59.04h-19.18zm65.2-112.53h30.7c38.35 0 73.73-.42 106.12-1.28-26.74-70.43-48.48-135.63-65.11-195.63h-3.3c-6.07 22.6-12.36 43.48-18.65 62.34-6.28 18.97-15.45 44.22-27.37 75.65-11.94 31.43-19.4 51.04-22.39 58.92zm393.41-253.8l26.21-5.11c12.57 40.16 26.64 80.22 42.3 120.18 2.77 7.56 5.54 14.82 8.2 21.74 2.56 6.81 4.8 12.57 6.39 17.27 10.87 29.08 19.18 49.97 24.94 62.86 5.75 12.89 12.57 23.01 20.34 30.36 7.89 7.36 17.9 11.08 30.16 11.08v16.52h-24.4c-1.7 0-3.52-.11-5.22-.43-1.7-.21-4.26-.64-7.67-1.16-3.41-.65-5.11-.86-4.9-.86-3.41-.43-8.74-.64-15.98-.64-8.64 0-15.04.21-19.29.64-3.09.43-6.08.75-8.74 1.17-2.77.32-5.44.64-7.99.85-2.56.32-5.23.43-8.1.43h-21.84v-16.52c4.37.86 7.46 1.29 9.05 1.29 14.07 0 21.1-6.4 21.1-19.29 0-4.37-.84-8.85-2.45-13.32l-51.24-158.65-7.04-26.86h-3.83c-5.01 21.1-12.26 44.97-21.74 71.71-3.41 9.37-7.46 20.56-12.16 33.46-4.57 12.79-8.62 24.61-12.24 35.37-3.52 10.66-6.4 20.03-8.64 28.02-2.23 8.1-3.29 14.28-3.29 18.76 0 10.22 1.91 17.69 5.74 22.38 3.95 4.79 12.58 7.13 26.01 7.13v16.52h-19.82c-1.92 0-4.9-.43-8.74-1.28-3.83-.74-6.6-1.17-8.42-1.17-9.48 0-20.24.43-32.28 1.17-12.05.85-20.47 1.28-25.26 1.28h-15.34v-16.52c15.66 0 28.13-5.22 37.51-15.66 9.48-10.44 17.68-25.14 24.82-44 7.04-18.75 14.39-38.58 21.95-59.25 5.22-13.32 11.51-30.05 18.75-50.07 7.25-20.04 12.79-35.17 16.52-45.4 2.45-6.18 5.01-12.99 7.78-20.45 2.77-7.46 5.65-15.34 8.85-23.55zm185.62 274.9v-16.52c5.96 2.88 11.71 4.38 17.36 4.38 10.23 0 18.97-4.06 26.11-12.16 7.24-8.09 16.19-20.45 26.85-37.18 7.56-11.61 15.13-21.85 22.7-30.68 7.56-8.85 16.51-16.52 26.84-23.23 10.44-6.72 22.17-11.3 35.27-13.96v-5.76h-17.79c-18 0-33.46-2.87-46.03-8.63-12.68-5.76-22.16-13.64-28.34-23.55-6.18-9.9-9.28-21.09-9.28-33.56 0-20.35 7.78-37.5 23.44-51.57 15.68-14.07 36.67-21.1 62.88-21.1 4.36 0 16.3.32 35.9 1.18 19.5.84 38.04 1.27 55.51 1.27 22.7 0 43.16-.84 61.38-2.45v16.41h-5.22c-9.48 0-16.83 2.13-22.27 6.29-5.32 4.15-9.27 11.5-11.94 22.16-2.55 10.55-4.15 25.47-4.79 44.43v97.93c0 22.26 2.02 39.42 5.97 51.56 3.94 12.16 12.14 18.22 24.82 18.22h19.18v16.52h-27.49c-2.56 0-4.9-.11-7.03-.43-2.24-.21-5.22-.64-9.06-1.16-3.83-.65-5.64-.86-5.64-.86-3.95-.96-10.13-1.5-18.65-1.5-8.52 0-14.92.54-19.18 1.5-.21 0-2.34.21-6.4.86-4.15.52-7.35.95-9.58 1.16-2.34.32-5.01.43-7.78.43h-28.03v-16.52h15.98c14.72 0 23.77-7.88 27.29-23.54 3.62-15.77 5.54-39.11 5.97-70.01v-101.64c0-13.54-.86-23.23-2.67-29.2-1.71-6.08-5.75-10.23-12.05-12.57-6.27-2.46-16.72-3.63-31.32-3.63-13.43 0-26.85 3.83-40.06 11.41-13.32 7.56-19.92 19.38-19.92 35.26 0 12.37 2.66 23.54 7.88 33.68 5.22 10.01 13.96 18.11 26.1 24.28 12.15 6.08 28.02 9.17 47.63 9.17v11.94c-11.93 3.29-21.09 8.83-27.49 16.72-6.39 7.78-13.63 19.18-21.73 33.99-31.44 58.81-65.32 88.33-101.44 88.33-10.55 0-21.84-2.56-33.88-7.67zm792.31-181.46h-21.09c.42-3.51.64-8.21.64-14.06 0-38.04-23.87-57.01-71.6-57.01-4.26 0-11.52.43-21.74 1.29-2.88 32.7-4.37 78.2-4.37 136.27v18.54c0 26.01 1.92 45.82 5.65 59.46 3.83 13.64 12.36 20.45 25.57 20.45h23.76v16.52h-33.88c-3.94 0-12.68-.86-26.21-2.45h-31.43c-13.75 1.59-22.28 2.45-25.58 2.45h-27.48v-16.52h15.34c23.86 0 35.9-36.22 35.9-108.79 0-8.83-.2-20.45-.63-34.95-.43-14.48-.64-23.65-.64-27.59 0-18.43-.54-32.18-1.6-41.24-1.18-9.05-4.16-16.2-9.06-21.42-5.01-5.22-13-7.77-23.97-7.77-2.56 0-7.57.42-15.34 1.28v-16.52h28.12c7.56 0 17.79.32 30.69 1.18 10.23.84 28.98 1.27 56.25 1.27 35.38 0 66.28-.84 92.7-2.45v92.06zm187.01 181.46h4.91c1.7-12.57 5.74-32.39 12.25-59.46l28.66-118.91c7.24-30.36 10.97-48.06 10.97-53.06 0-17.15-10.65-25.68-32.07-25.68v-16.52c6.5.43 12.68.65 18.65.65 4.05.1 8.42.32 13.1.64 4.69.32 9.59.63 14.6.84 5.12.32 8.84.43 11.29.43 6.4 0 15.55-.43 27.49-1.27 3.2-.21 7.35-.43 12.57-.75 5.22-.21 9.17-.43 11.73-.54v16.52c-12.57.43-22.27 3.42-28.98 9.06-6.72 5.64-11.3 11.72-13.86 18.33-2.55 6.6-7.24 20.99-14.17 43.04l-40.17 128.4-30.79 113.79c-1.59 6.51-4.26 16.41-7.99 29.84-3.63 13.43-7.99 25.46-13.21 36.01-5.23 10.55-12.04 19.4-20.57 26.53-8.52 7.15-19.07 10.66-31.75 10.66-19.18 0-35.81-7.67-49.75-23.02 10.22-16.62 18.11-33.35 23.54-50.39 3.4 7.99 8.62 15.34 15.98 21.95 7.25 6.71 16.3 10.01 26.95 10.01 10.35 0 19.08-4.05 26.22-12.15 7.14-7.99 10.77-20.03 10.77-35.9 0-12.47-3.2-28.24-9.49-47.31l-76.61-219.39c-13.75-39.64-28.45-59.46-44.22-59.46h-11.51v-16.52c6.51 0 15.56.43 27.5 1.29 14.48.84 26.74 1.27 36.43 1.27 8.96 0 19.4-.43 31.22-1.27 11.3-.86 21.1-1.29 29.52-1.29v16.52c-20.89 0-31.33 8.32-31.33 25.04 0 7.89 2.13 18.75 6.39 32.6l40.81 126.58c7.24 21.31 12.14 45.61 14.92 72.89zm161.23-248.79v-16.52c51.46-2.24 89.82-9.06 115.07-20.46-4.48 20.78-7.57 40.7-9.48 59.88 26.42-20.99 47.95-35.27 64.67-42.84 16.73-7.45 32.82-11.28 48.48-11.28 21.2 0 39.74 5.96 55.62 17.79 15.88 11.93 27.92 27.8 36.12 47.73 8.2 20.03 12.36 41.66 12.36 64.99 0 23.98-5 45.82-14.92 65.43-9.91 19.5-23.76 36.12-41.34 49.76-17.68 13.64-37.61 23.87-59.98 30.9-22.27 6.93-45.61 10.44-69.8 10.44-5.54 0-13.74-.42-24.83-1.27v48.59c0 25.89 2.04 47.2 5.97 63.92 3.95 16.73 13.43 25.04 28.56 25.04h28.67v16.52h-41.46c-3.41 0-11.92-.86-25.67-2.45h-31.33c-13.53 1.59-22.06 2.45-25.58 2.45h-28.12v-16.52h16.09c14.27 0 23.33-8.52 27.28-25.57 3.94-16.94 5.96-38.15 5.96-63.39v-204.8c0-28.66-1.17-49.86-3.4-63.5-2.25-13.64-6.62-22.92-13.22-27.71-6.61-4.79-17.16-7.13-31.44-7.13h-24.28zm111.97 36.43v195.1c14.07 6.5 30.8 9.7 50.4 9.7 22.49 0 42.2-6.4 59.14-19.19 16.95-12.89 29.84-29.51 38.78-49.86 8.85-20.45 13.32-41.76 13.32-64.04 0-22.16-4.68-41.33-13.95-57.75-9.27-16.41-21.09-28.87-35.38-37.5-14.39-8.64-28.55-12.89-42.73-12.89-11.4 0-23.54 3.41-36.43 10.22-12.79 6.82-23.87 15.56-33.15 26.21zm249.45 212.36v-16.52c16.31 0 29.84-7.99 40.39-23.97 10.55-15.99 19.82-41.55 27.71-76.72 7.88-35.16 16.52-86.09 25.89-152.68l23.76-10.12c15.77 36.76 33.03 74.05 51.68 111.87 23.22 48.27 38.78 84.5 46.66 108.68h3.85c7.13-16.61 12.99-28.87 17.57-36.87 4.69-7.88 9.91-16.72 15.66-26.63 5.87-9.91 14.29-26 25.16-48.37 10.96-22.27 25.99-55.1 45.27-98.56l28.78-10.12c5.85 53.8 10.96 96.21 15.23 127.33 4.26 31.21 9.16 56.68 14.49 76.61 5.43 19.92 12.47 34.84 21 44.75 8.51 9.9 19.27 14.8 32.27 14.8v16.52h-22.26c-2.13 0-5.33-.43-9.7-1.28-4.37-.74-7.78-1.17-10.23-1.17-9.16 0-20.88.43-34.95 1.17-14.06.85-25.14 1.28-33.35 1.28h-13.42v-16.52c10.76 0 18.75-2.45 23.65-7.24 5.01-4.9 7.56-13.96 7.56-27.39 0-7.56-.42-14.8-1.27-22.05a355.74 355.74 0 00-3.63-23.55c-1.48-8.52-2.66-15.34-3.41-20.35-5.74-33.99-9.26-68.08-10.76-102.18h-4.47c-22.37 56.79-56.79 129.89-103.04 219.28h-10.76c-4.58-9.58-11.08-22.58-19.29-39.21-8.31-16.52-14.91-29.84-19.81-40.06-22.17-44.65-36.13-73.41-42.09-86.21-5.86-12.78-11.83-28.34-18.01-46.77h-4.47c-4.69 31.86-9.16 59.98-13.43 84.39-2.77 15.12-5.33 29.73-7.78 43.79-2.45 14.17-3.61 25.25-3.61 33.56 0 23.44 9.8 35.28 29.29 35.28 2.14 0 5.75-.43 10.97-1.29v16.52h-17.36c-2.98 0-5.75-.11-8.2-.43-2.56-.21-6.08-.64-10.55-1.16-4.58-.65-7.03-.86-7.46-.86h-36.34c-10.44 1.59-17.9 2.45-22.48 2.45h-14.71zm746.52-57.53v21.83c-20.56 16.73-35.8 28.03-45.39 33.89-9.7 5.85-17.8 8.84-24.41 8.84-18 0-29.93-14.91-35.69-44.75-13.31 13.96-28.35 24.83-45.07 32.82-16.73 7.99-33.25 11.93-49.55 11.93-24.71 0-42.61-5.22-53.69-15.77-11.19-10.55-16.74-21.2-16.74-32.18 0-24.82 13.43-45.92 40.28-63.29 26.96-17.26 70-28.45 129.25-33.35v-19.18c0-28.87-2.24-50.93-6.82-66.17-4.48-15.23-11.08-25.35-19.82-30.37-8.74-5-20.46-7.56-35.38-7.56-11.39 0-21.3 3.3-29.93 10.02-8.64 6.6-12.89 14.81-12.89 24.5 0 5.65 1.91 11.62 5.74 17.91l-53.06 32.06c-3.83-8.3-5.75-16.29-5.75-23.76 0-15.55 7.35-29.5 22.05-41.66 14.71-12.14 32.5-21.63 53.38-28.23 20.89-6.72 39.11-10.01 54.87-10.01 21.01 0 38.8 4.68 53.17 14.16 14.5 9.39 21.74 24.73 21.74 45.93 0 8.74-.95 28.34-2.77 58.82-1.91 30.36-3.51 64.45-5 102.28 0 24.73 4.48 37.19 13.42 37.19 10.66 0 26.75-12.04 48.06-35.9zm-103.04-63.29c-37.4 2.66-66.48 7.56-87.26 14.8-20.67 7.35-31.01 22.06-31.01 44.11 0 13.21 3.52 24.83 10.65 34.74 7.04 10.01 17.37 15.03 31.02 15.03 19.27 0 36.86-7.99 52.74-24.08 15.87-15.99 23.86-44.23 23.86-84.6zm144.18-152.81h29.94c2.45 0 10.97.86 25.58 2.56h26.85c14.59-1.7 23.12-2.56 25.57-2.56h27.49v16.52h-9.49c-9.48 0-16.83 1.49-21.95 4.37-5.12 2.98-8.84 8.74-11.18 17.48-2.24 8.73-3.41 21.73-3.41 39.21v38.35c24.19 4.27 48.48 6.4 72.88 6.4 24.39 0 48.69-2.13 72.88-6.4v-38.35c0-17.48-1.18-30.59-3.41-39.32-2.35-8.74-5.96-14.6-11.09-17.48-5.11-2.88-12.35-4.26-21.83-4.26h-9.71v-16.52h27.5c2.45 0 10.97.86 25.57 2.56h26.85c14.6-1.7 23.13-2.56 25.58-2.56h29.93v16.52h-12.03c-10.44 0-18.22 1.6-23.34 4.8-5.11 3.09-8.84 9.9-11.08 20.24-2.24 10.34-3.31 26.74-3.31 49.23v82.47c0 18.11.54 32.72 1.6 43.79 1.18 11.08 4.16 20.57 9.06 28.35 4.9 7.78 12.36 11.71 22.59 11.71h16.51v16.52h-28.02c-4.68 0-12.57-.86-23.65-2.45h-35.81c-11.08 1.59-19.17 2.45-24.19 2.45h-23.76v-16.52h11.52c14.38 0 23.76-5.97 28.01-18 4.38-12.04 6.51-28.23 6.51-48.49v-53.06c-34.52 1.71-58.82 2.45-72.88 2.45-14.06 0-38.36-.74-72.88-2.45v53.06c0 20.26 2.23 36.45 6.6 48.49 4.48 12.03 13.74 18 27.92 18h11.51v16.52h-23.76c-5.02 0-13.1-.86-24.19-2.45h-35.8c-11.09 1.59-18.97 2.45-23.66 2.45h-28.02v-16.52h16.51c10.24 0 17.7-3.93 22.6-11.71 4.89-7.78 7.88-17.27 9.06-28.35 1.06-11.07 1.59-25.68 1.59-43.79v-82.47c0-22.49-1.07-38.89-3.31-49.23-2.23-10.34-5.97-17.15-11.08-20.24-5.11-3.2-12.78-4.8-23.22-4.8h-12.15v-16.52zm379.75 134.9c0-18.97 3.63-36.87 10.77-53.8 7.13-16.95 17.48-31.97 31-45.29 13.53-13.32 29.62-23.76 48.06-31.12 18.53-7.35 38.89-11.07 61.05-11.07 27.39 0 52 5.96 73.74 17.79 21.73 11.82 38.68 28.12 50.71 48.79 12.05 20.68 18.12 43.37 18.12 68.31 0 24.4-5.86 48.37-17.69 71.92-11.82 23.55-29.09 42.72-51.99 57.75-22.81 15.02-49.65 22.48-80.56 22.48-28.55 0-53.8-6.39-75.54-19.06-21.74-12.69-38.36-30.06-50.08-52.22-11.72-22.16-17.59-46.99-17.59-74.48zm49.24-15.34c0 23.11 4.36 45.6 13 67.66 8.72 21.94 21.31 39.75 37.72 53.59 16.5 13.75 35.79 20.68 57.96 20.68 26.64 0 47.63-9.81 63.08-29.3 15.44-19.51 23.22-42.95 23.22-70.44 0-29.94-5.22-56.16-15.66-78.85-10.34-22.7-23.87-40.06-40.6-52.09-16.72-12.05-33.99-18.02-51.78-18.02-15.02 0-29.09 4.16-42.41 12.47-13.32 8.3-24.08 20.57-32.28 36.76-8.21 16.2-12.25 35.37-12.25 57.54zm465.63 6.5v6.92c2.13.22 4.15.43 6.08.64 1.91.22 5.01.65 9.26 1.28 13.54 1.07 28.66 6.07 45.29 15.14 16.73 9.05 25.04 25.78 25.04 50.07 0 20.67-7.67 39-23.13 54.87-15.34 15.88-41.98 23.76-79.9 23.76-7.78 0-20.15-1.27-37.08-3.83-15.98-2.56-28.14-3.73-36.34-3.73-5.65 0-14.38.43-26.21 1.17-11.09.85-19.18 1.28-24.4 1.28h-22.27v-16.52h12.15c22.59 0 33.88-28.34 33.88-85.13 0-4.58-.11-11.09-.31-19.28-.22-8.21-.32-13.96-.32-17.16 0-5.97.1-14.39.32-25.35.2-10.87.31-18.65.31-23.24 0-24.29-2.24-42.09-6.6-53.39-4.37-11.39-13.43-17.04-27.28-17.04h-12.15v-16.52c18.76 1.72 43.79 2.56 75.33 2.56 9.06 0 20.88-.43 35.48-1.27 14.6-.86 24.09-1.29 28.56-1.29 29.83 0 52 5.97 66.81 18.01 14.7 11.94 22.06 25.79 22.06 41.46 0 16.3-5.01 30.89-15.04 43.89-10.12 13-26.63 20.56-49.54 22.7zm-54.44-.64h18.65c15.87 0 28.34-5.44 37.49-16.2 9.06-10.87 13.64-24.51 13.64-40.81 0-32.81-23.01-49.22-68.94-49.22-5.22 0-12.89 1.27-23.11 3.73-1.29 26.1-1.92 73.63-1.92 142.78v31.21c0 15.35 1.06 27.7 2.99 36.98 2.02 9.37 6.38 16.62 13.32 21.84 6.81 5.22 17.14 7.78 31 7.78 18.43 0 34.31-5.22 47.73-15.77 13.32-10.55 20.03-24.08 20.03-40.49 0-18.43-6.07-34.2-18.33-47.09-12.24-13-30.04-19.51-53.27-19.51-8.1 0-14.49.43-19.28 1.29v-16.52zm-6.89-836.84c59.63 88.83 137.66 133.85 234.09 135.12 95.12 0 172.51-45.03 232.14-135.12 57.1-87.52 86.9-205.5 89.43-353.94 0-148.41-29.79-267.03-89.43-355.84-57.09-87.53-134.47-131.3-232.14-131.3-95.16 0-173.19 43.77-234.09 131.3-27.89 44.42-49.13 96.75-63.71 157-14.61 60.26-22.55 126.54-23.81 198.84 0 142.1 29.18 260.07 87.52 353.94zm616.57 43.79c-98.95 104.02-226.44 156.03-382.48 156.03-153.5 0-281.63-52.01-384.41-156.03-97.66-101.51-146.51-234.07-146.51-397.73 0-162.38 48.85-294.94 146.51-397.7 101.51-104.02 229.63-156.66 384.41-157.92 153.48 0 280.99 52.62 382.48 157.92 97.69 101.49 147.78 234.06 150.33 397.7 0 163.66-50.11 296.22-150.33 397.73zm-1358.69 57.08c102.76 0 198.54-20.3 287.36-60.9v91.33c-119.27 45.68-237.24 68.52-353.97 68.52-161.1 0-291.14-48.83-390.08-146.52-96.42-95.14-145.88-222-148.43-380.59 0-168.73 55.18-308.27 165.56-418.64 109.08-109.1 246.74-163.63 412.93-163.63 134.47 0 251.81 39.94 352.03 119.86l-131.3 144.62c-83.73-130.66-182.04-196-294.93-196-91.36 0-164.31 40.59-218.85 121.78-53.28 81.2-79.93 190.95-79.93 329.22 0 154.78 34.9 275.29 104.65 361.55 71.04 85 169.37 128.14 294.96 129.4zM4502.66 610.79l352.04-131.31v1297.77c0 78.67 10.14 130.03 30.46 154.15 20.28 22.84 64.69 35.53 133.2 38.04h11.4v57.1h-527.1v-57.1h17.14c67.23 0 109.72-12.67 127.48-38.04 20.3-24.12 30.44-75.48 30.44-154.15V894.3c0-92.59-6.32-149.68-19.02-171.24-12.68-27.92-46.29-52.65-100.84-74.23l-55.2-22.83v-15.21zm-479.53 1058.02v-188.4l-55.18 17.13c-143.35 45.66-239.13 86.89-287.33 123.69-44.43 36.78-66.61 89.42-66.61 157.93 0 44.4 15.21 83.74 45.67 117.99 30.43 31.71 67.23 47.58 110.35 47.58 71.06 0 135.75-32.35 194.12-97.07 39.31-43.12 58.98-102.74 58.98-178.85zm76.11 332.99c-30.44-34.25-51.37-87.53-62.78-159.85-59.62 74.88-118.63 128.14-176.99 159.85-59.62 35.53-124.32 53.29-194.09 53.29-69.77 0-127.49-22.84-173.17-68.52-44.39-48.18-66.59-107.18-66.59-176.95 0-78.64 35.53-145.26 106.56-199.82 69.76-52.02 190.29-103.38 361.57-154.11l129.38-38.09v-148.4c0-58.37-4.43-102.76-13.32-133.23-7.62-26.63-23.48-48.2-47.58-64.69-36.78-27.89-83.72-41.88-140.8-41.88-58.36 0-102.13 12.09-131.32 36.17-27.89 25.39-41.85 62.81-41.85 112.26v45.69l-201.71 64.69v-28.54c0-77.38 43.75-148.44 131.31-213.14 84.98-67.23 191.54-100.82 319.68-100.82 104.02 0 180.14 22.2 228.35 66.57 48.21 44.4 72.32 114.81 72.32 211.24v447.19c0 114.16 10.13 189.65 30.42 226.44 20.31 38.06 60.27 57.09 119.9 57.09 17.76 0 38.06-1.89 60.89-5.72v55.19c-60.89 34.26-121.79 51.38-182.68 51.38-54.55 0-97.04-17.76-127.5-53.29z" fill="#c0954f"/><path d="M171.82 2371.12h6502.11v33.43H171.82v-33.43zm8259.55 171.72l-482.01-541.17v313.21c0 70.75 9.26 117.75 27.82 140.97 19.73 23.19 60.91 34.8 123.56 34.8h8.68v52.19h-482v-52.19h17.4c60.33 0 98.61-11.61 114.84-34.8 19.74-23.22 29.58-70.22 29.58-140.97v-810.94c0-77.7-6.37-129.33-19.14-154.85-13.91-25.54-44.07-47.57-90.48-66.13l-52.2-20.88v-13.93l321.94-120.07v873.59l257.51-217.54c74.27-62.66 112.55-103.26 114.88-121.81 2.31-17.41-22.05-26.11-73.09-26.11h-12.19v-53.94h339.33v53.94h-13.92c-42.92 0-128.76 53.35-257.53 160.08l-189.69 158.36 318.46 360.23c103.26 116.01 178.08 174.59 224.47 175.77h12.2v52.19h-238.42zM2404.75 626.2c33.69 0 61.01 27.32 61.01 61.02 0 33.69-27.32 61.01-61.01 61.01-33.67 0-61.02-27.32-61.02-61.01 0-33.7 27.35-61.02 61.02-61.02zm31.58 196.04c51.13 0 92.6 41.46 92.6 92.59 0 51.14-41.47 92.6-92.6 92.6-51.13 0-92.6-41.46-92.6-92.6 0-51.13 41.47-92.59 92.6-92.59zm-246.3-160.3c66.35 0 120.12 53.8 120.12 120.12 0 66.33-53.77 120.13-120.12 120.13-66.31 0-120.13-53.8-120.13-120.13 0-66.32 53.82-120.12 120.13-120.12zm352.84-51.15l352.05-131.31v532.61h-.21v81.45c324.19-72.98 521.47-296.44 560.75-352.34 6.51-9.37 21.95-.38 16.23 9.45-132.72 215.08-332.19 392.46-576.98 466.05v389.29c0 124.33 17.13 214.42 51.38 270.23 32.98 55.81 85.63 84.37 157.93 85.63 38.08 0 91.36-19.04 159.84-57.1v85.64c-79.93 43.14-161.73 64.7-245.46 64.7-107.84 0-183.97-31.72-228.35-95.14-44.4-63.43-70.42-170.62-70.42-321.6v-389.02c-527.75 43.7-1033.99-306-946.47-825.86C1800.27 238.03 1957 36.56 2157.59 5c54.65-14.54 120.92-21.74 171.41 16.22 21.45 16.12 25.24 58.92 9.08 81.98C2181.7 326.34 1731 240.38 1639.23-8.47c-21.03-56.94-21.19-118.38 12.45-169.6 72.86-110.66 225.36-100.16 332.08-34.29 15.08 9.31 2.92 25.49-10.21 17.75-163.14-96.49-387.64-24.43-261.69 180.14 96.52 156.91 251.65 198.41 352.47 199.88 61.3.87 146.31 10.71 214.73-44.17 85.03-68.2 41.9-104.88-3.91-113.03-232.46-41.5-411.66 186.21-437.58 405.45-53.79 454.42 454.57 695.01 882.06 681.42v-102.99h-1.66V894.3c0-92.6-6.36-149.67-19.05-171.24-12.68-27.92-46.31-52.65-100.86-74.23L2542.87 626v-15.21zm-255.21 657.73v508.74c0 77.4 10.18 128.77 30.46 154.14 21.58 25.37 64.7 38.04 129.4 38.04h15.23v57.11h-527.12v-57.11h20.95c64.69 0 105.91-12.67 123.67-38.04 19.04-21.58 29.81-72.95 32.34-154.14v-411.02c0-75.75-4.09-128.24-12.12-157.35 61.74 30.44 124.73 50.64 187.19 59.63zM1263.92 610.79l352.01-131.31v1297.78c0 78.66 10.15 130.02 30.46 154.14 20.3 22.84 64.71 35.53 133.2 38.04h11.43v57.11h-527.1v-57.11h17.12c67.23 0 109.73-12.67 127.48-38.04 20.31-24.12 30.45-75.48 30.45-154.14V894.3c0-92.6-6.33-149.67-19.04-171.24-12.67-27.92-46.28-52.65-100.83-74.23L1263.92 626v-15.21zM784.38 1939.01c109.1 0 220.09-29.82 332.99-89.44v87.54c-133.2 78.64-265.76 117.98-397.69 117.98-156.05 0-284.18-52.01-384.41-156.03-98.94-102.77-148.42-234.7-148.42-395.81 0-159.85 46.95-293.06 140.82-399.62 98.96-105.3 220.1-157.92 363.46-157.92 129.4 0 230.88 43.11 304.46 129.38 69.78 85 105.92 204.88 108.46 359.65v28.54h-719.3c0 25.37-.62 40.6-1.91 45.67 0 119.25 38.07 222.02 114.2 308.29 77.38 79.91 173.16 120.49 287.34 121.77zM485.6 1113.13c-51.99 71.05-84.98 168.74-98.95 293.06h196.02c140.81 0 229.62-6.98 266.4-20.93 36.78-13.94 55.18-47.56 55.18-100.85 0-82.46-20.3-149.7-60.88-201.7-41.88-50.74-93.88-76.13-156.03-76.13-79.93 0-147.19 35.52-201.74 106.55zm6895.16 1241.98c50.74 0 91.87 41.14 91.87 91.89 0 50.73-41.13 91.87-91.87 91.87-50.76 0-91.88-41.14-91.88-91.87 0-50.75 41.12-91.89 91.88-91.89zm297.94-379.94c9.74-35.63-13.94-86.86-47.61-97.25-79.23-24.42-157.91 13.85-218.98 56.09-233.8 128.07-338.04 446.59-289.14 687.73 3.59 20.03 7.86 39.58 12.58 58.8l85.59-22.95c-5.21-16.86-9.99-34.08-14.11-51.88-65.33-282.38 54.98-643.27 360.59-695.24 60.25-10.22 129.84 15.93 55.03 137.93-60.15 98.18-169.6 123.78-245.65 149.91-125.22 42.99-335.32 60.57-524.26-90.44-246.44-196.83-1.08-385.53 243.35-338.8 19.63 3.79 27.5-21.63 4.72-26.38-161.1-34.11-354.2 20.68-395.09 189.79-18.82 78.21 8.67 154.05 59.93 215.04 223.92 266.74 818.89 172.84 913.05-172.35zm1835.08 567.67H8756.8v-52.19l558.59-861.4h-174.03c-134.56 0-216.35 11.02-245.35 33.07-32.49 27.82-53.96 67.28-64.39 118.33l-1.73 15.64h-64.39l27.83-214.02h718.68v46.98l-560.32 861.4h229.69c99.79 0 169.97-11.61 210.58-34.8 39.45-22.06 64.97-66.15 76.56-132.27l3.47-15.66h71.36l-29.57 234.92z" fill="#5f2723"/></g><g fill="#2b2a29"><path d="M9112.93 1031.37v29.94h-112.95c1.25-11.31 4.89-22.03 11.04-32.17 6.1-10.14 18.2-23.56 36.2-40.31 14.56-13.5 23.44-22.7 26.73-27.51 4.42-6.66 6.65-13.23 6.65-19.73 0-7.16-1.91-12.68-5.79-16.55-3.87-3.88-9.2-5.8-16.01-5.8-6.73 0-12.05 2.04-16.04 6.07-3.96 4.07-6.26 10.8-6.89 20.19l-32.09-3.2c1.92-17.73 7.9-30.45 18-38.2 10.1-7.71 22.7-11.59 37.85-11.59 16.59 0 29.62 4.5 39.09 13.43 9.47 8.96 14.21 20.07 14.21 33.38 0 7.55-1.37 14.76-4.07 21.6-2.7 6.85-7.01 14.02-12.88 21.49-3.91 4.97-10.95 12.13-21.09 21.45-10.18 9.31-16.63 15.53-19.33 18.59-2.7 3.05-4.94 6.02-6.62 8.92h63.99zm104.22 29.94h-32.21V939.87c-11.78 11.04-25.63 19.18-41.6 24.42v-29.23c8.38-2.74 17.53-7.95 27.4-15.62 9.86-7.71 16.63-16.67 20.27-26.93h26.14v168.8zm91.97-24.19v-43.67h-44.02v-30.18h44.02V919.6h29.36v43.67h44.14v30.18h-44.14v43.67h-29.36z" fill-rule="nonzero"/><path d="M9186.77 682.88c162.36 0 294.02 131.66 294.02 294.02 0 162.36-131.66 294.02-294.02 294.02-162.36 0-294.02-131.66-294.02-294.02 0-162.36 131.66-294.02 294.02-294.02zm0 40.55c139.96 0 253.47 113.51 253.47 253.47 0 139.96-113.51 253.47-253.47 253.47-139.96 0-253.47-113.51-253.47-253.47 0-139.96 113.51-253.47 253.47-253.47z"/></g></svg>