<svg xmlns="http://www.w3.org/2000/svg" width="259.069" height="77.514" viewBox="0 0 27.01 8.081" shape-rendering="geometricPrecision" text-rendering="geometricPrecision" image-rendering="optimizeQuality" fill-rule="evenodd" clip-rule="evenodd"><path d="M0 2.756h1.868v.852c.181-.368.367-.623.558-.761.19-.14.427-.21.708-.21.295 0 .616.092.966.275l-.618 1.423c-.234-.099-.422-.148-.559-.148a.692.692 0 00-.608.324c-.206.304-.31.873-.31 1.707v1.746H0V2.756zm6.047 1.686l-1.907-.2c.072-.334.176-.597.311-.788.136-.19.33-.356.586-.497.183-.102.436-.18.755-.236.32-.055.667-.084 1.04-.084.598 0 1.08.034 1.441.1.364.068.667.208.908.42.17.148.304.356.403.625.097.272.146.528.146.774v2.3c0 .244.017.437.047.576.032.139.098.316.204.532H8.108a1.943 1.943 0 01-.148-.306 2.27 2.27 0 01-.068-.332 2.553 2.553 0 01-.78.54 3.243 3.243 0 01-1.231.215c-.621 0-1.093-.144-1.416-.431a1.368 1.368 0 01-.482-1.063c0-.397.115-.722.348-.977.233-.256.66-.445 1.284-.569a29.31 29.31 0 001.458-.316c.221-.06.457-.14.705-.238 0-.246-.05-.417-.15-.515-.103-.098-.28-.148-.537-.148-.326 0-.57.054-.734.158-.128.082-.232.236-.31.46zm1.73 1.05c-.274.098-.56.185-.856.26-.405.108-.663.215-.77.319a.5.5 0 00-.168.368.5.5 0 00.164.385c.11.099.271.15.484.15.223 0 .429-.054.621-.161a.996.996 0 00.407-.396c.08-.155.119-.358.119-.606v-.32zm3.15-2.736h1.86v.847c.278-.346.559-.592.843-.741.285-.15.632-.225 1.04-.225.553 0 .985.166 1.298.494.311.328.467.836.467 1.522v3.311h-2.006V5.1c0-.327-.06-.558-.18-.693-.123-.137-.292-.204-.511-.204a.725.725 0 00-.588.274c-.15.183-.226.512-.226.986v2.501h-1.997V2.756zm6.773 0h.037l.975.974.974-.974h.012v5.208H17.7V2.756zm2.821 0h2.369l.829 1.452.96-1.452h2.204l-1.776 2.481 1.903 2.727h-2.33l-.961-1.677-1.134 1.677h-2.163l1.894-2.727-1.795-2.48z" fill="#1f1a17" fill-rule="nonzero"/><path fill="#da251d" d="M17.119 1.593L18.712 0l1.593 1.593-1.593 1.593z"/></svg>