<svg xmlns="http://www.w3.org/2000/svg" width="912" height="271" viewBox="0 0 912 271" fill="none">
<path d="M149.75 0.649996H135.75H74.15H61.9H0.300002V62.25V211.7H61.9V62.25H74.15V211.7H135.75V62.25H149.75V211.7H211.35V62.25V0.649996H149.75ZM429.682 0.29998V123.85L341.832 35.65V0.29998H280.232V211.7H341.832V122.8L429.682 211L430.382 211.7H431.782H491.282V0.29998H429.682ZM626.663 211.7V0.649996H564.713V211.7H626.663ZM849.75 0.649996H761.9H700.3V62.25V150.1V211.7H761.9H849.75V270.85H911.35V211.7V150.1V62.25V0.649996H849.75ZM849.75 150.1H761.9V62.25H849.75V150.1Z" fill="#B1B1B1" fill-opacity="0.3"/>
</svg>