<?xml version="1.0" encoding="UTF-8"?>
<!DOCTYPE svg PUBLIC "-//W3C//DTD SVG 1.1//EN" "http://www.w3.org/Graphics/SVG/1.1/DTD/svg11.dtd">
<!-- Creator: CorelDRAW -->
<svg xmlns="http://www.w3.org/2000/svg" xml:space="preserve" width="68.5454mm" height="20.509mm" style="shape-rendering:geometricPrecision; text-rendering:geometricPrecision; image-rendering:optimizeQuality; fill-rule:evenodd; clip-rule:evenodd"
viewBox="0 0 27.01 8.08148"
 xmlns:xlink="http://www.w3.org/1999/xlink">
 <defs>
  <style type="text/css">
   <![CDATA[
    .fil1 {fill:#DA251D}
    .fil0 {fill:#1F1A17;fill-rule:nonzero}
   ]]>
  </style>
 </defs>
 <g id="Слой_x0020_1">
  <metadata id="CorelCorpID_0Corel-Layer"/>
  <path class="fil0" d="M0 2.75615l1.86833 0 0 0.852123c0.180788,-0.368314 0.36662,-0.622789 0.557456,-0.761729 0.190876,-0.13894 0.426909,-0.209278 0.708179,-0.209278 0.294628,0 0.616051,0.0920884 0.965963,0.274571l-0.617745 1.42298c-0.234378,-0.0987478 -0.421905,-0.147334 -0.559151,-0.147334 -0.261173,0 -0.463752,0.108835 -0.607736,0.323117 -0.205889,0.304676 -0.30968,0.873875 -0.30968,1.7076l0 1.74609 -2.00561 0 0 -5.20814zm6.04679 1.68581l-1.90683 -0.200884c0.0719921,-0.333165 0.175784,-0.595994 0.311414,-0.78683 0.135591,-0.190836 0.329777,-0.356572 0.585906,-0.497207 0.182482,-0.102137 0.435302,-0.180827 0.755031,-0.236073 0.319768,-0.0552452 0.666292,-0.0836953 1.03965,-0.0836953 0.597649,0 1.0798,0.0334939 1.44138,0.100442 0.36331,0.0669877 0.666292,0.207583 0.907369,0.42021 0.170779,0.147334 0.304715,0.354917 0.403463,0.624444 0.0970928,0.271222 0.145639,0.527351 0.145639,0.773433l0 2.30024c0,0.244426 0.0167469,0.436918 0.0468914,0.575898 0.0317995,0.13894 0.0987872,0.316379 0.204234,0.532355l-1.87333 0c-0.0753415,-0.133936 -0.123888,-0.236033 -0.147294,-0.30637 -0.0234457,-0.0702977 -0.0452364,-0.180788 -0.0686427,-0.331471 -0.261173,0.25278 -0.522347,0.431913 -0.780131,0.539054 -0.353262,0.143984 -0.763424,0.215976 -1.23049,0.215976 -0.621095,0 -1.0932,-0.143984 -1.41628,-0.431913 -0.321462,-0.286274 -0.482154,-0.641191 -0.482154,-1.06306 0,-0.396764 0.115495,-0.721537 0.348218,-0.976011 0.232684,-0.25613 0.659593,-0.445311 1.28404,-0.569199 0.749987,-0.150683 1.23549,-0.25613 1.45813,-0.316419 0.220981,-0.0602496 0.457053,-0.140635 0.704829,-0.237728 0,-0.246081 -0.0502408,-0.416821 -0.150683,-0.515609 -0.102137,-0.0970928 -0.279575,-0.147334 -0.535705,-0.147334 -0.326467,0 -0.570893,0.0535902 -0.734934,0.157382 -0.127237,0.0820403 -0.231029,0.236033 -0.30972,0.460363zm1.73104 1.04966c-0.274571,0.0987872 -0.560845,0.185832 -0.857167,0.261173 -0.405118,0.107141 -0.662942,0.214282 -0.770083,0.318074 -0.112145,0.108835 -0.167391,0.231029 -0.167391,0.368314 0,0.157382 0.0552452,0.28458 0.164041,0.385061 0.11049,0.0987478 0.271222,0.148989 0.483809,0.148989 0.222675,0 0.428603,-0.0535902 0.621095,-0.160731 0.190876,-0.108796 0.326467,-0.241077 0.406813,-0.39507 0.0803853,-0.155687 0.118884,-0.358266 0.118884,-0.606042l0 -0.319768zm3.14901 -2.73546l1.85993 0 0 0.84708c0.277881,-0.346524 0.559151,-0.592644 0.84373,-0.741633 0.284619,-0.148989 0.631143,-0.22433 1.03961,-0.22433 0.552491,0 0.984405,0.165736 1.29743,0.493857 0.311414,0.328122 0.467102,0.835376 0.467102,1.52176l0 3.3114 -2.00557 0 0 -2.8644c0,-0.326467 -0.060289,-0.557496 -0.180827,-0.693087 -0.122194,-0.137285 -0.291278,-0.204234 -0.510604,-0.204234 -0.241077,0 -0.438612,0.0920884 -0.587601,0.274532 -0.150683,0.182482 -0.226025,0.512299 -0.226025,0.98606l0 2.50113 -1.99718 0 0 -5.20814zm6.77345 0l0.0370797 0 0.974159 0.974199 0.974238 -0.974199 0.0117426 0 0 5.20814 -1.99722 0 0 -5.20814zm2.82085 0l2.36888 0 0.828678 1.45143 0.960919 -1.45143 2.20315 0 -1.77624 2.48103 1.90348 2.72711 -2.33039 0 -0.960919 -1.67745 -1.13339 1.67745 -2.16292 0 1.89339 -2.72711 -1.79464 -2.48103z"/>
  <polygon class="fil1" points="17.1187,1.59293 18.7116,0 20.3045,1.59293 18.7116,3.18586 "/>
 </g>
</svg>
